{"title":"007 For Your Eyes Only ITA ENG AC3 BDRip 1080p X265 ZMachine","uid":11262521,"size":3928382402,"categoryP":"video","categoryS":"hd___movies","magnet":"?xt=urn:btih:ff55932d301ba649d70b266e9ae809837fc35754&amp;dn=007+For+Your+Eyes+Only+ITA+ENG+AC3+BDRip+1080p+X265+ZMachine&amp;tr=udp%3A%2F%2Ftracker.openbittorrent.com%3A80&amp;tr=udp%3A%2F%2Fopen.demonii.com%3A1337&amp;tr=udp%3A%2F%2Ftracker.coppersurfer.tk%3A6969&amp;tr=udp%3A%2F%2Fexodus.desync.com%3A6969","seeders":4,"leechers":6,"uploader":"ZMachTNT","files":1,"time":1413986390,"description":"007: James Bond - For Your Eyes Only \nSolo per i tuoi occhi - ZMachine\n\nGeneral\nUnique ID                                : 196356670893687832150291484888231600457 (0x93B8EB525BA9F609A841B3B198086149)\nComplete name                            : D:COMPLETATIscreenshotsï¿½07.For.Your.Eyes.Only.ITA.ENG.AC3.BDRip.1080p.X265_ZMachine.mkv\nFormat                                   : Matroska\nFormat version                           : Version 4 / Version 2\nFile size                                : 3.66 GiB\nDuration                                 : 2h 7mn\nOverall bit rate                         : 4 092 Kbps\nMovie name                               : 007: Solo per i Tuoi Occhi - ZMachine\nEncoded date                             : UTC 2014-10-10 14:39:29\nWriting application                      : mkvmerge v7.2.0 ('On Every Street') 32bit built on Sep 13 2014 15:42:11\nWriting library                          : libebml v1.3.0 + libmatroska v1.4.1\n\nVideo\nID                                       : 1\nFormat                                   : HEVC\nFormat/Info                              : High Efficiency Video Coding\nCodec ID                                 : V_MPEGH/ISO/HEVC\nDuration                                 : 2h 7mn\nBit rate                                 : 3 115 Kbps\nWidth                                    : 1 920 pixels\nHeight                                   : 816 pixels\nDisplay aspect ratio                     : 2.35:1\nFrame rate mode                          : Constant\nFrame rate                               : 23.976 fps\nBits/(Pixel*Frame)                       : 0.083\nStream size                              : 2.78 GiB (76%)\nTitle                                    : Video H.265 (Encoded by ZMachine)\nDefault                                  : Yes\nForced                                   : Yes\n\nAudio #1\nID                                       : 2\nFormat                                   : AC-3\nFormat/Info                              : Audio Coding 3\nMode extension                           : CM (complete main)\nFormat settings, Endianness              : Big\nCodec ID                                 : A_AC3\nDuration                                 : 2h 7mn\nBit rate mode                            : Constant\nBit rate                                 : 448 Kbps\nChannel(s)                               : 6 channels\nChannel positions                        : Front: L C R, Side: L R, LFE\nSampling rate                            : 48.0 KHz\nBit depth                                : 16 bits\nCompression mode                         : Lossy\nStream size                              : 410 MiB (11%)\nTitle                                    : Audio AC3\nLanguage                                 : Italian\nDefault                                  : Yes\nForced                                   : No\n\nAudio #2\nID                                       : 3\nFormat                                   : AC-3\nFormat/Info                              : Audio Coding 3\nMode extension                           : CM (complete main)\nFormat settings, Endianness              : Big\nCodec ID                                 : A_AC3\nDuration                                 : 2h 7mn\nBit rate mode                            : Constant\nBit rate                                 : 448 Kbps\nChannel(s)                               : 6 channels\nChannel positions                        : Front: L C R, Side: L R, LFE\nSampling rate                            : 48.0 KHz\nBit depth                                : 16 bits\nCompression mode                         : Lossy\nStream size                              : 410 MiB (11%)\nTitle                                    : Audio AC3\nLanguage                                 : English\nDefault                                  : No\nForced                                   : No\n\nText #1\nID                                       : 4\nFormat                                   : ASS\nCodec ID                                 : S_TEXT/ASS\nCodec ID/Info                            : Advanced Sub Station Alpha\nCompression mode                         : Lossless\nTitle                                    : Sub Forced\nLanguage                                 : Italian\nDefault                                  : Yes\nForced                                   : Yes\n\nText #2\nID                                       : 5\nFormat                                   : ASS\nCodec ID                                 : S_TEXT/ASS\nCodec ID/Info                            : Advanced Sub Station Alpha\nCompression mode                         : Lossless\nTitle                                    : Sub\nLanguage                                 : Italian\nDefault                                  : No\nForced                                   : No\n\nText #3\nID                                       : 6\nFormat                                   : ASS\nCodec ID                                 : S_TEXT/ASS\nCodec ID/Info                            : Advanced Sub Station Alpha\nCompression mode                         : Lossless\nTitle                                    : Sub\nLanguage                                 : English\nDefault                                  : No\nForced                                   : No\n\nMenu\n00:00:00.000                             : Opening Sequence\n00:06:38.564                             : Sharp 'chuting\n00:09:22.311                             : Main Titles\n00:13:56.669                             : The Drax Estate\n00:16:52.928                             : Centrifugal Bond\n00:19:04.685                             : Dufour-Play\n00:24:12.075                             : Safecracking\n00:28:31.918                             : A Pheasant Pastime\n00:33:46.858                             : Dogged Determination\n00:39:28.657                             : Trailing Dr. Goodhead\n00:43:02.162                             : Going, Going, Gondola\n00:47:05.322                             : Toxic Encounters\n00:51:58.156                             : By Sword &amp; Piano Chord\n00:55:37.334                             : Disarming Dr. Goodhead\n00:58:33.718                             : Revelry in Rio\n01:00:35.882                             : A Toothy Clown\n01:04:41.627                             : The Tram Ram\n01:11:07.263                             : Kidnapped\n01:14:30.215                             : Magnificent...Bond?\n01:18:40.966                             : What's Mines Is Yours\n01:20:26.238                             : Not Hanging Around\n01:23:37.679                             : Of Beauties &amp; Boas\n01:33:15.172                             : Launching the Fleet\n01:37:45.359                             : Some Like It Hot\n01:42:51.748                             : Cockpit for Two\n01:44:55.706                             : Mett the Space Race\n01:53:52.784                             : In the City in Space\n01:57:19.907                             : Mutiny\n02:00:20.338                             : Battle in Space\n02:01:12.348                             : Launching Drax\n02:03:19.975                             : Globe Tracking\n02:05:19.762                             : End Credits","torrent":{"xt":"urn:btih:ff55932d301ba649d70b266e9ae809837fc35754","amp;dn":"007+For+Your+Eyes+Only+ITA+ENG+AC3+BDRip+1080p+X265+ZMachine","amp;tr":["udp%3A%2F%2Ftracker.openbittorrent.com%3A80","udp%3A%2F%2Fopen.demonii.com%3A1337","udp%3A%2F%2Ftracker.coppersurfer.tk%3A6969","udp%3A%2F%2Fexodus.desync.com%3A6969"],"infoHash":"ff55932d301ba649d70b266e9ae809837fc35754","infoHashBuffer":{"type":"Buffer","data":[255,85,147,45,48,27,166,73,215,11,38,110,154,232,9,131,127,195,87,84]},"announce":[],"urlList":[]}}